<?xml version="1.0" encoding="utf-8"?>
<!-- Generator: Adobe Illustrator 26.5.0, SVG Export Plug-In . SVG Version: 6.00 Build 0)  -->
<svg version="1.1" id="レイヤー_1" xmlns="http://www.w3.org/2000/svg" xmlns:xlink="http://www.w3.org/1999/xlink" x="0px"
	 y="0px" viewBox="0 0 419.53 226.04" style="enable-background:new 0 0 419.53 226.04;" xml:space="preserve">
<style type="text/css">
	.st0{fill:#EBCDE2;}
	.st1{fill:none;}
	.st2{fill:none;stroke:#000000;stroke-miterlimit:10;}
	.st3{fill:none;stroke:#724296;stroke-miterlimit:10;}
	.st4{fill:#E60012;stroke:#E60012;stroke-miterlimit:10;}
	.st5{font-family:'HiraKakuProN-W3-83pv-RKSJ-H';}
	.st6{font-size:13.005px;}
	.st7{font-family:'HiraKakuStdN-W8-83pv-RKSJ-H';}
	.st8{font-family:'ArialNarrow';}
	.st9{font-family:'KozGoPr6N-Regular-83pv-RKSJ-H';}
	.st10{font-size:8.6309px;}
</style>
<rect x="252.35" y="64.8" class="st0" width="127.41" height="73.37"/>
<g>
	<line class="st1" x1="103.15" y1="53.64" x2="398.02" y2="53.64"/>
	<g>
		<line class="st2" x1="111.35" y1="53.64" x2="389.8" y2="53.64"/>
		<g>
			<path d="M113.16,53.64l2.2-3.62l-0.12-0.08l-5.92,2.35c-2.06,0.45-4.12,0.91-6.18,1.36c2.06,0.45,4.12,0.91,6.18,1.36l5.92,2.35
				l0.12-0.06L113.16,53.64z"/>
		</g>
		<g>
			<path d="M388,53.64l-2.2-3.62l0.12-0.08l5.92,2.35c2.06,0.45,4.12,0.91,6.18,1.36c-2.06,0.45-4.12,0.91-6.18,1.36l-5.92,2.35
				l-0.12-0.06L388,53.64z"/>
		</g>
	</g>
</g>
<g>
	<line class="st1" x1="37.63" y1="203.32" x2="37.63" y2="87.45"/>
	<g>
		<line class="st2" x1="37.63" y1="195.1" x2="37.63" y2="95.66"/>
		<g>
			<path d="M37.63,193.3l-3.62-2.2l-0.08,0.12l2.35,5.92c0.45,2.06,0.91,4.12,1.36,6.18c0.45-2.06,0.91-4.12,1.36-6.18l2.35-5.92
				l-0.06-0.12L37.63,193.3z"/>
		</g>
		<g>
			<path d="M37.63,97.46l-3.62,2.2l-0.08-0.12l2.35-5.92c0.45-2.06,0.91-4.12,1.36-6.18c0.45,2.06,0.91,4.12,1.36,6.18l2.35,5.92
				l-0.06,0.12L37.63,97.46z"/>
		</g>
	</g>
</g>
<g>
	<line class="st1" x1="70.99" y1="203.32" x2="70.99" y2="87.45"/>
	<g>
		<line class="st2" x1="70.99" y1="195.1" x2="70.99" y2="95.66"/>
		<g>
			<path d="M70.99,193.3l-3.62-2.2l-0.08,0.12l2.35,5.92c0.45,2.06,0.91,4.12,1.36,6.18c0.45-2.06,0.91-4.12,1.36-6.18l2.35-5.92
				l-0.06-0.12L70.99,193.3z"/>
		</g>
		<g>
			<path d="M70.99,97.46l-3.62,2.2l-0.08-0.12l2.35-5.92c0.45-2.06,0.91-4.12,1.36-6.18c0.45,2.06,0.91,4.12,1.36,6.18l2.35,5.92
				l-0.06,0.12L70.99,97.46z"/>
		</g>
	</g>
</g>
<rect x="124.33" y="71.92" class="st3" width="114.15" height="136.27"/>
<rect x="258.97" y="71.92" class="st3" width="114.15" height="62.14"/>
<rect x="258.97" y="141.62" class="st3" width="114.15" height="66.57"/>
<g>
	<path d="M275,159.14c-0.05-0.43-0.15-0.92-0.28-1.46l-1.04-4.01c-0.14-0.53-0.24-1.16-0.38-2.05c-0.08,0.55-0.24,1.42-0.41,2.05
		l-1.01,4.02c-0.18,0.68-0.26,1.08-0.3,1.44h-2.71c-0.07-0.39-0.14-0.68-0.34-1.47l-2.18-8.17c-0.19-0.69-0.38-1.32-0.51-1.69h3.11
		c0.01,0.49,0.08,0.93,0.19,1.5l0.88,4.14c0.04,0.2,0.14,0.85,0.3,1.92c0.2-1.15,0.3-1.63,0.38-1.92l1.09-4.23
		c0.16-0.61,0.24-1.04,0.3-1.42h2.43c0.05,0.35,0.13,0.73,0.31,1.38l1.11,4.2c0.11,0.43,0.2,0.89,0.38,1.99
		c0.03-0.26,0.03-0.26,0.11-0.84c0.04-0.3,0.13-0.96,0.19-1.17l0.86-4.06c0.14-0.62,0.19-1.02,0.2-1.5h3.09
		c-0.14,0.37-0.33,1.01-0.5,1.69l-2.18,8.16c-0.18,0.64-0.3,1.16-0.34,1.49L275,159.14L275,159.14z"/>
	<path d="M283.74,155.74c0.14,1.11,0.77,1.69,1.85,1.69c0.54,0,1.03-0.18,1.38-0.5c0.2-0.19,0.3-0.34,0.41-0.69l2.37,0.66
		c-0.31,0.7-0.51,1.02-0.9,1.4c-0.77,0.76-1.86,1.16-3.21,1.16c-1.34,0-2.39-0.38-3.16-1.16c-0.81-0.82-1.24-1.97-1.24-3.32
		c0-2.7,1.73-4.48,4.33-4.48c2.12,0,3.61,1.16,4.09,3.19c0.11,0.43,0.16,1.01,0.2,1.78c0,0.05,0,0.14,0.01,0.27H283.74z
		 M287.28,153.87c-0.19-0.88-0.77-1.34-1.72-1.34c-0.97,0-1.55,0.43-1.78,1.34H287.28z"/>
	<path d="M290.95,159.14c0.08-0.65,0.11-1.23,0.11-2.13v-7.06c0-1-0.03-1.49-0.11-2.13h2.77c-0.07,0.65-0.09,1.15-0.09,2.13v1.15
		c0,0.2,0,0.32-0.01,0.51c0.81-0.7,1.68-1.02,2.81-1.02c2.48,0,3.93,1.58,3.93,4.28c0,1.46-0.42,2.63-1.22,3.46
		c-0.7,0.7-1.63,1.07-2.84,1.07c-1.13,0-1.8-0.23-2.69-0.97c0,0.04,0.01,0.22,0.01,0.28v0.43h-2.67V159.14z M295.77,152.65
		c-1.24,0-2.12,0.96-2.12,2.27c0,1.35,0.9,2.38,2.07,2.38c1.19,0,1.97-0.97,1.97-2.42C297.7,153.5,296.97,152.65,295.77,152.65z"/>
</g>
<path class="st4" d="M260.72,107.3c28.28,0,56.57,0,84.86,0"/>
<text transform="matrix(1 0 0 1 77.1366 26.7302)"><tspan x="0" y="0" class="st5 st6">アナログ</tspan><tspan x="0" y="15.61" class="st5 st6">（印刷）</tspan></text>
<text transform="matrix(1 0 0 1 365.8974 24.6203)"><tspan x="0" y="0" class="st5 st6">デジタル</tspan><tspan x="0" y="15.61" class="st5 st6">（画面）</tspan></text>
<text transform="matrix(1 0 0 1 239.3427 19.3474)" class="st7 st6">媒体</text>
<text transform="matrix(6.123234e-17 -1 1 6.123234e-17 14.4301 186.2405)" class="st7 st6">誰がどう使うか</text>
<text transform="matrix(1 0 0 1 24.9149 84.9265)" class="st5 st6">私的</text>
<text transform="matrix(1 0 0 1 24.8622 217.2961)" class="st5 st6">公的</text>
<text transform="matrix(1 0 0 1 57.9833 84.9724)" class="st5 st6">試作</text>
<text transform="matrix(1 0 0 1 58.1395 217.2239)" class="st5 st6">製品</text>
<text transform="matrix(1 0 0 1 130.5053 85.9006)" class="st7 st6">pdf(TeX)</text>
<text transform="matrix(1 0 0 1 264.9872 86.928)" class="st7 st6">ToolKit的</text>
<text transform="matrix(1 0 0 1 265.1435 104.0412)"><tspan x="0" y="0" class="st8 st6">PyQtGraph</tspan><tspan x="0" y="15.61" class="st8 st6">matplotlib, seaborn</tspan></text>
<text transform="matrix(1 0 0 1 265.5458 173.0198)"><tspan x="0" y="0" class="st8 st6">Jupyter Notebook</tspan><tspan x="0" y="15.17" class="st8 st6">Plotly</tspan><tspan x="0" y="30.34" class="st8 st6">Dash</tspan></text>
<text transform="matrix(1 0 0 1 131.5194 104.0412)"><tspan x="0" y="0" class="st8 st6">matplotlib</tspan><tspan x="0" y="15.17" class="st8 st6">gnuplot</tspan><tspan x="0" y="30.34" class="st8 st6">ggplot...</tspan></text>
<text transform="matrix(1 0 0 1 78.7348 97.3498)" class="st9 st10">try &amp; error</text>
</svg>
